<?xml version="1.0" encoding="UTF-8"?>
<!DOCTYPE svg PUBLIC "-//W3C//DTD SVG 1.1//EN" "http://www.w3.org/Graphics/SVG/1.1/DTD/svg11.dtd">
<svg version="1.1" xmlns="http://www.w3.org/2000/svg" xmlns:xlink="http://www.w3.org/1999/xlink" x="0" y="0" width="233" height="233" viewBox="0, 0, 233, 233">
  <g id="Layer_2">
    <path d="M0,0 L233,0 L233,233 L0,233 L0,0 z" fill="#03312C"/>
  </g>
  <g id="Layer_1">
    <g id="Layer_1">
      <g>
        <path d="M208.396,173.956 L66.668,173.956 C65.935,173.956 65.343,173.364 65.343,172.631 L65.343,161.399 L62.208,172.985 C62.049,173.559 61.528,173.965 60.928,173.965 L31.346,173.965 C30.613,173.965 30.021,173.373 30.021,172.64 L30.021,69.324 C30.021,68.591 30.613,67.999 31.346,67.999 L101.99,67.999 C102.625,67.999 103.164,68.441 103.288,69.068 C105.416,79.708 114.9,87.426 125.832,87.426 C136.508,87.426 145.806,79.708 147.935,69.068 C148.058,68.449 148.606,67.999 149.233,67.999 L185.439,67.999 C185.915,67.999 186.348,68.255 186.586,68.661 C186.825,69.076 186.825,69.58 186.586,69.986 L160.289,115.137 L160.651,127.403 L171.15,120.524 L193.509,70.544 C193.659,70.217 193.933,69.961 194.268,69.837 C194.604,69.714 194.984,69.74 195.31,69.899 L198.489,71.489 L199.69,68.778 C199.902,68.301 200.379,67.992 200.9,67.992 L208.406,67.992 C209.139,67.992 209.731,68.583 209.731,69.316 L209.731,143.935 C209.731,144.411 209.474,144.853 209.051,145.091 L198.957,150.725 L208.07,148.394 C208.468,148.297 208.892,148.376 209.21,148.632 C209.536,148.88 209.722,149.268 209.722,149.674 L209.722,172.633 C209.722,173.366 209.13,173.958 208.397,173.958 z M68.001,171.307 L207.081,171.307 L207.072,151.385 L189.738,155.818 C189.093,155.986 188.422,155.641 188.183,155.023 C187.936,154.405 188.183,153.699 188.766,153.372 L207.072,143.155 L207.072,70.639 L201.747,70.639 L200.334,73.827 C200.184,74.154 199.91,74.41 199.575,74.534 C199.23,74.657 198.859,74.631 198.533,74.472 L195.354,72.882 L173.401,121.953 C173.295,122.183 173.128,122.377 172.916,122.519 L160.111,130.908 C159.705,131.172 159.202,131.199 158.769,130.978 C158.345,130.757 158.072,130.325 158.054,129.839 L157.612,114.827 C157.604,114.58 157.665,114.333 157.789,114.121 L183.124,70.64 L150.284,70.64 C147.52,81.961 137.4,90.067 125.824,90.067 C114,90.067 103.695,81.961 100.921,70.64 L32.671,70.64 L32.671,171.307 L59.914,171.307 L65.389,151.094 C65.565,150.45 66.183,150.035 66.846,150.132 C67.508,150.22 67.994,150.785 67.994,151.448 z" fill="#EDA63A"/>
        <path d="M208.396,173.956 L66.668,173.956 C65.935,173.956 65.343,173.364 65.343,172.631 L65.343,161.399 L62.208,172.985 C62.049,173.559 61.528,173.965 60.928,173.965 L31.346,173.965 C30.613,173.965 30.021,173.373 30.021,172.64 L30.021,69.324 C30.021,68.591 30.613,67.999 31.346,67.999 L101.99,67.999 C102.625,67.999 103.164,68.441 103.288,69.068 C105.416,79.708 114.9,87.426 125.832,87.426 C136.508,87.426 145.806,79.708 147.935,69.068 C148.058,68.449 148.606,67.999 149.233,67.999 L185.439,67.999 C185.915,67.999 186.348,68.255 186.586,68.661 C186.825,69.076 186.825,69.58 186.586,69.986 L160.289,115.137 L160.651,127.403 L171.15,120.524 L193.509,70.544 C193.659,70.217 193.933,69.961 194.268,69.837 C194.604,69.714 194.984,69.74 195.31,69.899 L198.489,71.489 L199.69,68.778 C199.902,68.301 200.379,67.992 200.9,67.992 L208.406,67.992 C209.139,67.992 209.731,68.583 209.731,69.316 L209.731,143.935 C209.731,144.411 209.474,144.853 209.051,145.091 L198.957,150.725 L208.07,148.394 C208.468,148.297 208.892,148.376 209.21,148.632 C209.536,148.88 209.722,149.268 209.722,149.674 L209.722,172.633 C209.722,173.366 209.13,173.958 208.397,173.958 z M68.001,171.307 L207.081,171.307 L207.072,151.385 L189.738,155.818 C189.093,155.986 188.422,155.641 188.183,155.023 C187.936,154.405 188.183,153.699 188.766,153.372 L207.072,143.155 L207.072,70.639 L201.747,70.639 L200.334,73.827 C200.184,74.154 199.91,74.41 199.575,74.534 C199.23,74.657 198.859,74.631 198.533,74.472 L195.354,72.882 L173.401,121.953 C173.295,122.183 173.128,122.377 172.916,122.519 L160.111,130.908 C159.705,131.172 159.202,131.199 158.769,130.978 C158.345,130.757 158.072,130.325 158.054,129.839 L157.612,114.827 C157.604,114.58 157.665,114.333 157.789,114.121 L183.124,70.64 L150.284,70.64 C147.52,81.961 137.4,90.067 125.824,90.067 C114,90.067 103.695,81.961 100.921,70.64 L32.671,70.64 L32.671,171.307 L59.914,171.307 L65.389,151.094 C65.565,150.45 66.183,150.035 66.846,150.132 C67.508,150.22 67.994,150.785 67.994,151.448 z" fill-opacity="0" stroke="#F2B44A" stroke-width="1.5"/>
      </g>
      <g>
        <path d="M31.343,152.322 C31.22,152.322 31.096,152.304 30.973,152.269 L23.467,150.061 C22.769,149.858 22.372,149.134 22.566,148.437 L30.072,121.504 C30.248,120.868 30.875,120.462 31.529,120.55 C32.182,120.638 32.677,121.203 32.677,121.866 L32.677,151.007 C32.677,151.422 32.483,151.82 32.147,152.067 C31.909,152.235 31.626,152.323 31.343,152.323 z M25.471,147.889 L30.028,149.231 L30.028,131.544 z" fill="#EDA63A"/>
        <path d="M31.343,152.322 C31.22,152.322 31.096,152.304 30.973,152.269 L23.467,150.061 C22.769,149.858 22.372,149.134 22.566,148.437 L30.072,121.504 C30.248,120.868 30.875,120.462 31.529,120.55 C32.182,120.638 32.677,121.203 32.677,121.866 L32.677,151.007 C32.677,151.422 32.483,151.82 32.147,152.067 C31.909,152.235 31.626,152.323 31.343,152.323 z M25.471,147.889 L30.028,149.231 L30.028,131.544 z" fill-opacity="0" stroke="#F2B44A" stroke-width="1.5"/>
      </g>
      <g>
        <path d="M191.627,194.708 C191.512,194.708 191.398,194.691 191.292,194.664 L112.699,173.913 C112.055,173.745 111.64,173.118 111.728,172.464 C111.816,171.802 112.373,171.308 113.044,171.308 L197.376,171.308 C197.791,171.308 198.179,171.502 198.427,171.829 C198.674,172.155 198.762,172.588 198.647,172.985 L192.907,193.737 C192.74,194.329 192.201,194.708 191.627,194.708 z M123.235,173.957 L190.691,191.768 L195.619,173.957 z" fill="#EDA63A"/>
        <path d="M191.627,194.708 C191.512,194.708 191.398,194.691 191.292,194.664 L112.699,173.913 C112.055,173.745 111.64,173.118 111.728,172.464 C111.816,171.802 112.373,171.308 113.044,171.308 L197.376,171.308 C197.791,171.308 198.179,171.502 198.427,171.829 C198.674,172.155 198.762,172.588 198.647,172.985 L192.907,193.737 C192.74,194.329 192.201,194.708 191.627,194.708 z M123.235,173.957 L190.691,191.768 L195.619,173.957 z" fill-opacity="0" stroke="#F2B44A" stroke-width="1.5"/>
      </g>
      <g>
        <path d="M208.403,133.778 C208.35,133.778 208.288,133.778 208.227,133.769 C207.564,133.681 207.07,133.125 207.07,132.454 L207.07,90.951 C207.07,90.527 207.264,90.139 207.608,89.883 C207.944,89.635 208.386,89.556 208.783,89.68 L218.938,92.77 C219.618,92.982 220.015,93.689 219.83,94.377 L209.675,132.79 C209.525,133.381 208.995,133.779 208.403,133.779 z M209.719,92.744 L209.719,122.265 L216.942,94.943 z" fill="#EDA63A"/>
        <path d="M208.403,133.778 C208.35,133.778 208.288,133.778 208.227,133.769 C207.564,133.681 207.07,133.125 207.07,132.454 L207.07,90.951 C207.07,90.527 207.264,90.139 207.608,89.883 C207.944,89.635 208.386,89.556 208.783,89.68 L218.938,92.77 C219.618,92.982 220.015,93.689 219.83,94.377 L209.675,132.79 C209.525,133.381 208.995,133.779 208.403,133.779 z M209.719,92.744 L209.719,122.265 L216.942,94.943 z" fill-opacity="0" stroke="#F2B44A" stroke-width="1.5"/>
      </g>
      <g>
        <path d="M102.005,70.639 L101.997,70.639 L41.95,70.639 C41.535,70.639 41.147,70.445 40.9,70.118 C40.652,69.792 40.564,69.368 40.67,68.971 L46.41,47.777 C46.604,47.071 47.328,46.656 48.035,46.841 L101.9,61.412 C102.474,61.571 102.881,62.092 102.881,62.692 L102.881,64.458 C102.881,66.109 102.881,67.31 103.252,68.856 C103.304,68.997 103.331,69.156 103.331,69.315 C103.331,70.048 102.731,70.639 102.006,70.639 z M43.68,67.99 L100.389,67.99 C100.23,66.807 100.23,65.721 100.23,64.458 L100.23,63.708 L48.625,49.746 z" fill="#EDA63A"/>
        <path d="M102.005,70.639 L101.997,70.639 L41.95,70.639 C41.535,70.639 41.147,70.445 40.9,70.118 C40.652,69.792 40.564,69.368 40.67,68.971 L46.41,47.777 C46.604,47.071 47.328,46.656 48.035,46.841 L101.9,61.412 C102.474,61.571 102.881,62.092 102.881,62.692 L102.881,64.458 C102.881,66.109 102.881,67.31 103.252,68.856 C103.304,68.997 103.331,69.156 103.331,69.315 C103.331,70.048 102.731,70.639 102.006,70.639 z M43.68,67.99 L100.389,67.99 C100.23,66.807 100.23,65.721 100.23,64.458 L100.23,63.708 L48.625,49.746 z" fill-opacity="0" stroke="#F2B44A" stroke-width="1.5"/>
      </g>
      <g>
        <path d="M159.386,131.129 C159.174,131.129 158.963,131.076 158.777,130.979 C158.353,130.758 158.08,130.325 158.062,129.84 L157.62,114.828 C157.612,114.58 157.673,114.333 157.797,114.121 L185.614,66.436 C185.967,65.836 186.726,65.606 187.353,65.915 L195.301,69.889 C195.936,70.207 196.21,70.966 195.919,71.611 L173.401,121.945 C173.295,122.175 173.127,122.369 172.915,122.511 L160.111,130.899 C159.899,131.058 159.643,131.129 159.387,131.129 z M160.287,115.137 L160.649,127.402 L171.149,120.523 L192.986,71.699 L187.282,68.847 z" fill="#EDA63A"/>
        <path d="M159.386,131.129 C159.174,131.129 158.963,131.076 158.777,130.979 C158.353,130.758 158.08,130.325 158.062,129.84 L157.62,114.828 C157.612,114.58 157.673,114.333 157.797,114.121 L185.614,66.436 C185.967,65.836 186.726,65.606 187.353,65.915 L195.301,69.889 C195.936,70.207 196.21,70.966 195.919,71.611 L173.401,121.945 C173.295,122.175 173.127,122.369 172.915,122.511 L160.111,130.899 C159.899,131.058 159.643,131.129 159.387,131.129 z M160.287,115.137 L160.649,127.402 L171.149,120.523 L192.986,71.699 L187.282,68.847 z" fill-opacity="0" stroke="#F2B44A" stroke-width="1.5"/>
      </g>
      <g>
        <path d="M199.123,74.614 C198.911,74.614 198.708,74.561 198.523,74.464 L182.186,66.075 C181.868,65.907 181.63,65.624 181.524,65.28 C181.418,64.936 181.462,64.565 181.63,64.256 L183.838,60.282 C184.191,59.655 184.977,59.416 185.613,59.752 L201.507,68.141 C202.126,68.468 202.382,69.209 202.099,69.854 L200.333,73.828 C200.183,74.163 199.909,74.419 199.565,74.543 C199.423,74.587 199.273,74.614 199.123,74.614 z M184.615,64.353 L198.487,71.479 L199.185,69.916 L185.533,62.71 z" fill="#EDA63A"/>
        <path d="M199.123,74.614 C198.911,74.614 198.708,74.561 198.523,74.464 L182.186,66.075 C181.868,65.907 181.63,65.624 181.524,65.28 C181.418,64.936 181.462,64.565 181.63,64.256 L183.838,60.282 C184.191,59.655 184.977,59.416 185.613,59.752 L201.507,68.141 C202.126,68.468 202.382,69.209 202.099,69.854 L200.333,73.828 C200.183,74.163 199.909,74.419 199.565,74.543 C199.423,74.587 199.273,74.614 199.123,74.614 z M184.615,64.353 L198.487,71.479 L199.185,69.916 L185.533,62.71 z" fill-opacity="0" stroke="#F2B44A" stroke-width="1.5"/>
      </g>
      <g>
        <path d="M196.474,67.99 C196.271,67.99 196.068,67.946 195.882,67.849 L188.818,64.317 C188.217,64.016 187.935,63.31 188.164,62.683 L195.229,43.256 C195.361,42.894 195.635,42.611 195.988,42.479 C196.341,42.337 196.739,42.364 197.083,42.54 L209.004,48.722 C209.349,48.898 209.596,49.216 209.684,49.587 C209.773,49.958 209.702,50.355 209.472,50.665 L197.551,67.443 C197.304,67.796 196.898,67.99 196.474,67.99 z M191.061,62.48 L196.059,64.979 L206.444,50.365 L197.216,45.578 z" fill="#EDA63A"/>
        <path d="M196.474,67.99 C196.271,67.99 196.068,67.946 195.882,67.849 L188.818,64.317 C188.217,64.016 187.935,63.31 188.164,62.683 L195.229,43.256 C195.361,42.894 195.635,42.611 195.988,42.479 C196.341,42.337 196.739,42.364 197.083,42.54 L209.004,48.722 C209.349,48.898 209.596,49.216 209.684,49.587 C209.773,49.958 209.702,50.355 209.472,50.665 L197.551,67.443 C197.304,67.796 196.898,67.99 196.474,67.99 z M191.061,62.48 L196.059,64.979 L206.444,50.365 L197.216,45.578 z" fill-opacity="0" stroke="#F2B44A" stroke-width="1.5"/>
      </g>
      <g>
        <path d="M166.01,118.325 C165.807,118.325 165.604,118.281 165.41,118.175 C164.756,117.839 164.5,117.044 164.836,116.391 L189.562,68.265 C189.898,67.611 190.692,67.355 191.346,67.691 C191.999,68.026 192.255,68.821 191.92,69.475 L167.193,117.601 C166.955,118.069 166.496,118.325 166.01,118.325 z" fill="#EDA63A"/>
        <path d="M166.01,118.325 C165.807,118.325 165.604,118.281 165.41,118.175 C164.756,117.839 164.5,117.044 164.836,116.391 L189.562,68.265 C189.898,67.611 190.692,67.355 191.346,67.691 C191.999,68.026 192.255,68.821 191.92,69.475 L167.193,117.601 C166.955,118.069 166.496,118.325 166.01,118.325 z" fill-opacity="0" stroke="#F2B44A" stroke-width="1.5"/>
      </g>
      <g>
        <path d="M159.386,131.129 L158.168,131.129 C157.435,131.129 156.843,130.537 156.843,129.804 C156.843,129.071 157.435,128.48 158.168,128.48 L159.386,128.48 C160.119,128.48 160.711,129.071 160.711,129.804 C160.711,130.537 160.119,131.129 159.386,131.129 z M150.229,131.129 L148.022,131.129 C147.289,131.129 146.697,130.537 146.697,129.804 C146.697,129.071 147.289,128.48 148.022,128.48 L150.229,128.48 C150.962,128.48 151.554,129.071 151.554,129.804 C151.554,130.537 150.962,131.129 150.229,131.129 z M140.074,131.129 L137.866,131.129 C137.134,131.129 136.542,130.537 136.542,129.804 C136.542,129.071 137.134,128.48 137.866,128.48 L140.074,128.48 C140.807,128.48 141.399,129.071 141.399,129.804 C141.399,130.537 140.807,131.129 140.074,131.129 z M129.919,131.129 L127.711,131.129 C126.978,131.129 126.387,130.537 126.387,129.804 C126.387,129.071 126.978,128.48 127.711,128.48 L129.919,128.48 C130.652,128.48 131.244,129.071 131.244,129.804 C131.244,130.537 130.652,131.129 129.919,131.129 z M119.764,131.129 L117.556,131.129 C116.823,131.129 116.232,130.537 116.232,129.804 C116.232,129.071 116.823,128.48 117.556,128.48 L119.764,128.48 C120.497,128.48 121.088,129.071 121.088,129.804 C121.088,130.537 120.497,131.129 119.764,131.129 z M109.609,131.129 L107.401,131.129 C106.668,131.129 106.077,130.537 106.077,129.804 C106.077,129.071 106.668,128.48 107.401,128.48 L109.609,128.48 C110.342,128.48 110.933,129.071 110.933,129.804 C110.933,130.537 110.342,131.129 109.609,131.129 z M99.454,131.129 L97.246,131.129 C96.513,131.129 95.922,130.537 95.922,129.804 C95.922,129.071 96.513,128.48 97.246,128.48 L99.454,128.48 C100.187,128.48 100.778,129.071 100.778,129.804 C100.778,130.537 100.187,131.129 99.454,131.129 z M89.299,131.129 L87.091,131.129 C86.358,131.129 85.766,130.537 85.766,129.804 C85.766,129.071 86.358,128.48 87.091,128.48 L89.299,128.48 C90.032,128.48 90.623,129.071 90.623,129.804 C90.623,130.537 90.032,131.129 89.299,131.129 z M79.144,131.129 L76.936,131.129 C76.203,131.129 75.611,130.537 75.611,129.804 C75.611,129.071 76.203,128.48 76.936,128.48 L79.144,128.48 C79.876,128.48 80.468,129.071 80.468,129.804 C80.468,130.537 79.876,131.129 79.144,131.129 z M68.988,131.129 L66.781,131.129 C66.048,131.129 65.456,130.537 65.456,129.804 C65.456,129.071 66.048,128.48 66.781,128.48 L68.988,128.48 C69.721,128.48 70.313,129.071 70.313,129.804 C70.313,130.537 69.721,131.129 68.988,131.129 z M58.833,131.129 L56.626,131.129 C55.893,131.129 55.301,130.537 55.301,129.804 C55.301,129.071 55.893,128.48 56.626,128.48 L58.833,128.48 C59.566,128.48 60.158,129.071 60.158,129.804 C60.158,130.537 59.566,131.129 58.833,131.129 z M49.182,129.151 C48.855,129.151 48.537,129.036 48.281,128.798 C47.645,128.206 47.107,127.526 46.674,126.767 C46.312,126.131 46.524,125.318 47.159,124.956 C47.795,124.594 48.599,124.806 48.97,125.442 C49.27,125.972 49.65,126.449 50.091,126.855 C50.621,127.358 50.656,128.197 50.153,128.727 C49.888,129.009 49.535,129.151 49.182,129.151 z M47.716,119.808 C47.504,119.808 47.292,119.755 47.089,119.649 C46.444,119.305 46.206,118.501 46.55,117.857 C46.974,117.08 47.513,116.373 48.149,115.773 C48.678,115.269 49.517,115.296 50.021,115.834 C50.524,116.364 50.497,117.203 49.959,117.706 C49.526,118.113 49.164,118.581 48.881,119.11 C48.643,119.552 48.184,119.808 47.716,119.808 z M79.03,116.117 L76.822,116.117 C76.089,116.117 75.498,115.525 75.498,114.792 C75.498,114.059 76.089,113.468 76.822,113.468 L79.03,113.468 C79.763,113.468 80.354,114.059 80.354,114.792 C80.354,115.525 79.763,116.117 79.03,116.117 z M68.883,116.117 L66.676,116.117 C65.943,116.117 65.351,115.525 65.351,114.792 C65.351,114.059 65.943,113.468 66.676,113.468 L68.883,113.468 C69.616,113.468 70.208,114.059 70.208,114.792 C70.208,115.525 69.608,116.117 68.883,116.117 z M58.72,116.117 L56.512,116.117 C55.779,116.117 55.187,115.525 55.187,114.792 C55.187,114.059 55.779,113.468 56.512,113.468 L58.72,113.468 C59.452,113.468 60.044,114.059 60.044,114.792 C60.044,115.525 59.452,116.117 58.72,116.117 z" fill="#EDA63A"/>
        <path d="M159.386,131.129 L158.168,131.129 C157.435,131.129 156.843,130.537 156.843,129.804 C156.843,129.071 157.435,128.48 158.168,128.48 L159.386,128.48 C160.119,128.48 160.711,129.071 160.711,129.804 C160.711,130.537 160.119,131.129 159.386,131.129 z M150.229,131.129 L148.022,131.129 C147.289,131.129 146.697,130.537 146.697,129.804 C146.697,129.071 147.289,128.48 148.022,128.48 L150.229,128.48 C150.962,128.48 151.554,129.071 151.554,129.804 C151.554,130.537 150.962,131.129 150.229,131.129 z M140.074,131.129 L137.866,131.129 C137.134,131.129 136.542,130.537 136.542,129.804 C136.542,129.071 137.134,128.48 137.866,128.48 L140.074,128.48 C140.807,128.48 141.399,129.071 141.399,129.804 C141.399,130.537 140.807,131.129 140.074,131.129 z M129.919,131.129 L127.711,131.129 C126.978,131.129 126.387,130.537 126.387,129.804 C126.387,129.071 126.978,128.48 127.711,128.48 L129.919,128.48 C130.652,128.48 131.244,129.071 131.244,129.804 C131.244,130.537 130.652,131.129 129.919,131.129 z M119.764,131.129 L117.556,131.129 C116.823,131.129 116.232,130.537 116.232,129.804 C116.232,129.071 116.823,128.48 117.556,128.48 L119.764,128.48 C120.497,128.48 121.088,129.071 121.088,129.804 C121.088,130.537 120.497,131.129 119.764,131.129 z M109.609,131.129 L107.401,131.129 C106.668,131.129 106.077,130.537 106.077,129.804 C106.077,129.071 106.668,128.48 107.401,128.48 L109.609,128.48 C110.342,128.48 110.933,129.071 110.933,129.804 C110.933,130.537 110.342,131.129 109.609,131.129 z M99.454,131.129 L97.246,131.129 C96.513,131.129 95.922,130.537 95.922,129.804 C95.922,129.071 96.513,128.48 97.246,128.48 L99.454,128.48 C100.187,128.48 100.778,129.071 100.778,129.804 C100.778,130.537 100.187,131.129 99.454,131.129 z M89.299,131.129 L87.091,131.129 C86.358,131.129 85.766,130.537 85.766,129.804 C85.766,129.071 86.358,128.48 87.091,128.48 L89.299,128.48 C90.032,128.48 90.623,129.071 90.623,129.804 C90.623,130.537 90.032,131.129 89.299,131.129 z M79.144,131.129 L76.936,131.129 C76.203,131.129 75.611,130.537 75.611,129.804 C75.611,129.071 76.203,128.48 76.936,128.48 L79.144,128.48 C79.876,128.48 80.468,129.071 80.468,129.804 C80.468,130.537 79.876,131.129 79.144,131.129 z M68.988,131.129 L66.781,131.129 C66.048,131.129 65.456,130.537 65.456,129.804 C65.456,129.071 66.048,128.48 66.781,128.48 L68.988,128.48 C69.721,128.48 70.313,129.071 70.313,129.804 C70.313,130.537 69.721,131.129 68.988,131.129 z M58.833,131.129 L56.626,131.129 C55.893,131.129 55.301,130.537 55.301,129.804 C55.301,129.071 55.893,128.48 56.626,128.48 L58.833,128.48 C59.566,128.48 60.158,129.071 60.158,129.804 C60.158,130.537 59.566,131.129 58.833,131.129 z M49.182,129.151 C48.855,129.151 48.537,129.036 48.281,128.798 C47.645,128.206 47.107,127.526 46.674,126.767 C46.312,126.131 46.524,125.318 47.159,124.956 C47.795,124.594 48.599,124.806 48.97,125.442 C49.27,125.972 49.65,126.449 50.091,126.855 C50.621,127.358 50.656,128.197 50.153,128.727 C49.888,129.009 49.535,129.151 49.182,129.151 z M47.716,119.808 C47.504,119.808 47.292,119.755 47.089,119.649 C46.444,119.305 46.206,118.501 46.55,117.857 C46.974,117.08 47.513,116.373 48.149,115.773 C48.678,115.269 49.517,115.296 50.021,115.834 C50.524,116.364 50.497,117.203 49.959,117.706 C49.526,118.113 49.164,118.581 48.881,119.11 C48.643,119.552 48.184,119.808 47.716,119.808 z M79.03,116.117 L76.822,116.117 C76.089,116.117 75.498,115.525 75.498,114.792 C75.498,114.059 76.089,113.468 76.822,113.468 L79.03,113.468 C79.763,113.468 80.354,114.059 80.354,114.792 C80.354,115.525 79.763,116.117 79.03,116.117 z M68.883,116.117 L66.676,116.117 C65.943,116.117 65.351,115.525 65.351,114.792 C65.351,114.059 65.943,113.468 66.676,113.468 L68.883,113.468 C69.616,113.468 70.208,114.059 70.208,114.792 C70.208,115.525 69.608,116.117 68.883,116.117 z M58.72,116.117 L56.512,116.117 C55.779,116.117 55.187,115.525 55.187,114.792 C55.187,114.059 55.779,113.468 56.512,113.468 L58.72,113.468 C59.452,113.468 60.044,114.059 60.044,114.792 C60.044,115.525 59.452,116.117 58.72,116.117 z" fill-opacity="0" stroke="#F2B44A" stroke-width="1.5"/>
      </g>
      <g>
        <path d="M100.663,116.116 L99.329,116.116 C98.596,116.116 98.005,115.524 98.005,114.792 C98.005,114.059 98.596,113.467 99.329,113.467 L100.663,113.467 C100.892,113.467 101.131,113.449 101.36,113.423 C102.084,113.326 102.747,113.838 102.844,114.562 C102.941,115.286 102.429,115.948 101.705,116.045 C101.36,116.098 101.016,116.116 100.663,116.116 z M91.382,116.116 L89.174,116.116 C88.441,116.116 87.85,115.524 87.85,114.792 C87.85,114.059 88.441,113.467 89.174,113.467 L91.382,113.467 C92.115,113.467 92.706,114.059 92.706,114.792 C92.706,115.524 92.115,116.116 91.382,116.116 z M81.227,116.116 L79.019,116.116 C78.286,116.116 77.694,115.524 77.694,114.792 C77.694,114.059 78.286,113.467 79.019,113.467 L81.227,113.467 C81.96,113.467 82.551,114.059 82.551,114.792 C82.551,115.524 81.96,116.116 81.227,116.116 z M107.515,111.374 C107.339,111.374 107.162,111.339 106.994,111.268 C106.323,110.977 106.014,110.2 106.297,109.528 C106.544,108.963 106.703,108.363 106.782,107.754 C106.879,107.029 107.551,106.517 108.266,106.614 C108.99,106.712 109.502,107.374 109.405,108.098 C109.29,108.946 109.061,109.776 108.725,110.571 C108.522,111.074 108.027,111.374 107.515,111.374 z M105.157,102.261 C104.875,102.261 104.583,102.173 104.345,101.979 C103.851,101.599 103.321,101.29 102.764,101.069 C102.084,100.795 101.749,100.027 102.023,99.347 C102.296,98.667 103.065,98.332 103.745,98.605 C104.539,98.923 105.29,99.347 105.979,99.886 C106.553,100.336 106.659,101.166 106.208,101.74 C105.943,102.093 105.555,102.261 105.157,102.261 z M95.365,100.663 L93.157,100.663 C92.424,100.663 91.832,100.071 91.832,99.338 C91.832,98.605 92.424,98.014 93.157,98.014 L95.365,98.014 C96.097,98.014 96.689,98.605 96.689,99.338 C96.689,100.071 96.097,100.663 95.365,100.663 z M85.209,100.663 L83.002,100.663 C82.269,100.663 81.677,100.071 81.677,99.338 C81.677,98.605 82.269,98.014 83.002,98.014 L85.209,98.014 C85.942,98.014 86.534,98.605 86.534,99.338 C86.534,100.071 85.942,100.663 85.209,100.663 z M75.063,100.663 L72.856,100.663 C72.123,100.663 71.531,100.071 71.531,99.338 C71.531,98.605 72.123,98.014 72.856,98.014 L75.063,98.014 C75.796,98.014 76.388,98.605 76.388,99.338 C76.379,100.071 75.787,100.663 75.063,100.663 z M64.908,100.663 L62.7,100.663 C61.967,100.663 61.376,100.071 61.376,99.338 C61.376,98.605 61.967,98.014 62.7,98.014 L64.908,98.014 C65.641,98.014 66.233,98.605 66.233,99.338 C66.233,100.071 65.632,100.663 64.908,100.663 z M54.744,100.663 L52.537,100.663 C51.804,100.663 51.212,100.071 51.212,99.338 C51.212,98.605 51.804,98.014 52.537,98.014 L54.744,98.014 C55.477,98.014 56.069,98.605 56.069,99.338 C56.069,100.071 55.477,100.663 54.744,100.663 z M44.589,100.663 L42.381,100.663 C41.648,100.663 41.057,100.071 41.057,99.338 C41.057,98.605 41.648,98.014 42.381,98.014 L44.589,98.014 C45.322,98.014 45.914,98.605 45.914,99.338 C45.914,100.071 45.322,100.663 44.589,100.663 z" fill="#EDA63A"/>
        <path d="M100.663,116.116 L99.329,116.116 C98.596,116.116 98.005,115.524 98.005,114.792 C98.005,114.059 98.596,113.467 99.329,113.467 L100.663,113.467 C100.892,113.467 101.131,113.449 101.36,113.423 C102.084,113.326 102.747,113.838 102.844,114.562 C102.941,115.286 102.429,115.948 101.705,116.045 C101.36,116.098 101.016,116.116 100.663,116.116 z M91.382,116.116 L89.174,116.116 C88.441,116.116 87.85,115.524 87.85,114.792 C87.85,114.059 88.441,113.467 89.174,113.467 L91.382,113.467 C92.115,113.467 92.706,114.059 92.706,114.792 C92.706,115.524 92.115,116.116 91.382,116.116 z M81.227,116.116 L79.019,116.116 C78.286,116.116 77.694,115.524 77.694,114.792 C77.694,114.059 78.286,113.467 79.019,113.467 L81.227,113.467 C81.96,113.467 82.551,114.059 82.551,114.792 C82.551,115.524 81.96,116.116 81.227,116.116 z M107.515,111.374 C107.339,111.374 107.162,111.339 106.994,111.268 C106.323,110.977 106.014,110.2 106.297,109.528 C106.544,108.963 106.703,108.363 106.782,107.754 C106.879,107.029 107.551,106.517 108.266,106.614 C108.99,106.712 109.502,107.374 109.405,108.098 C109.29,108.946 109.061,109.776 108.725,110.571 C108.522,111.074 108.027,111.374 107.515,111.374 z M105.157,102.261 C104.875,102.261 104.583,102.173 104.345,101.979 C103.851,101.599 103.321,101.29 102.764,101.069 C102.084,100.795 101.749,100.027 102.023,99.347 C102.296,98.667 103.065,98.332 103.745,98.605 C104.539,98.923 105.29,99.347 105.979,99.886 C106.553,100.336 106.659,101.166 106.208,101.74 C105.943,102.093 105.555,102.261 105.157,102.261 z M95.365,100.663 L93.157,100.663 C92.424,100.663 91.832,100.071 91.832,99.338 C91.832,98.605 92.424,98.014 93.157,98.014 L95.365,98.014 C96.097,98.014 96.689,98.605 96.689,99.338 C96.689,100.071 96.097,100.663 95.365,100.663 z M85.209,100.663 L83.002,100.663 C82.269,100.663 81.677,100.071 81.677,99.338 C81.677,98.605 82.269,98.014 83.002,98.014 L85.209,98.014 C85.942,98.014 86.534,98.605 86.534,99.338 C86.534,100.071 85.942,100.663 85.209,100.663 z M75.063,100.663 L72.856,100.663 C72.123,100.663 71.531,100.071 71.531,99.338 C71.531,98.605 72.123,98.014 72.856,98.014 L75.063,98.014 C75.796,98.014 76.388,98.605 76.388,99.338 C76.379,100.071 75.787,100.663 75.063,100.663 z M64.908,100.663 L62.7,100.663 C61.967,100.663 61.376,100.071 61.376,99.338 C61.376,98.605 61.967,98.014 62.7,98.014 L64.908,98.014 C65.641,98.014 66.233,98.605 66.233,99.338 C66.233,100.071 65.632,100.663 64.908,100.663 z M54.744,100.663 L52.537,100.663 C51.804,100.663 51.212,100.071 51.212,99.338 C51.212,98.605 51.804,98.014 52.537,98.014 L54.744,98.014 C55.477,98.014 56.069,98.605 56.069,99.338 C56.069,100.071 55.477,100.663 54.744,100.663 z M44.589,100.663 L42.381,100.663 C41.648,100.663 41.057,100.071 41.057,99.338 C41.057,98.605 41.648,98.014 42.381,98.014 L44.589,98.014 C45.322,98.014 45.914,98.605 45.914,99.338 C45.914,100.071 45.322,100.663 44.589,100.663 z" fill-opacity="0" stroke="#F2B44A" stroke-width="1.5"/>
      </g>
      <g>
        <path d="M118.325,187.203 L19.423,187.203 C18.69,187.203 18.099,186.611 18.099,185.879 C18.099,185.146 18.69,184.554 19.423,184.554 L118.325,184.554 C119.058,184.554 119.649,185.146 119.649,185.879 C119.649,186.611 119.058,187.203 118.325,187.203 z" fill="#EDA63A"/>
        <path d="M118.325,187.203 L19.423,187.203 C18.69,187.203 18.099,186.611 18.099,185.879 C18.099,185.146 18.69,184.554 19.423,184.554 L118.325,184.554 C119.058,184.554 119.649,185.146 119.649,185.879 C119.649,186.611 119.058,187.203 118.325,187.203 z" fill-opacity="0" stroke="#F2B44A" stroke-width="1.5"/>
      </g>
      <g>
        <path d="M145.698,192.943 L77.263,192.943 C76.53,192.943 75.939,192.351 75.939,191.618 C75.939,190.885 76.53,190.294 77.263,190.294 L145.698,190.294 C146.431,190.294 147.023,190.885 147.023,191.618 C147.023,192.351 146.431,192.943 145.698,192.943 z" fill="#EDA63A"/>
        <path d="M145.698,192.943 L77.263,192.943 C76.53,192.943 75.939,192.351 75.939,191.618 C75.939,190.885 76.53,190.294 77.263,190.294 L145.698,190.294 C146.431,190.294 147.023,190.885 147.023,191.618 C147.023,192.351 146.431,192.943 145.698,192.943 z" fill-opacity="0" stroke="#F2B44A" stroke-width="1.5"/>
      </g>
      <g>
        <path d="M161.152,192.943 L152.322,192.943 C151.589,192.943 150.997,192.351 150.997,191.618 C150.997,190.885 151.589,190.294 152.322,190.294 L161.152,190.294 C161.885,190.294 162.477,190.885 162.477,191.618 C162.477,192.351 161.885,192.943 161.152,192.943 z" fill="#EDA63A"/>
        <path d="M161.152,192.943 L152.322,192.943 C151.589,192.943 150.997,192.351 150.997,191.618 C150.997,190.885 151.589,190.294 152.322,190.294 L161.152,190.294 C161.885,190.294 162.477,190.885 162.477,191.618 C162.477,192.351 161.885,192.943 161.152,192.943 z" fill-opacity="0" stroke="#F2B44A" stroke-width="1.5"/>
      </g>
      <g>
        <path d="M47.681,192.943 L15.449,192.943 C14.716,192.943 14.125,192.351 14.125,191.618 C14.125,190.885 14.716,190.294 15.449,190.294 L47.681,190.294 C48.414,190.294 49.005,190.885 49.005,191.618 C49.005,192.351 48.414,192.943 47.681,192.943 z" fill="#EDA63A"/>
        <path d="M47.681,192.943 L15.449,192.943 C14.716,192.943 14.125,192.351 14.125,191.618 C14.125,190.885 14.716,190.294 15.449,190.294 L47.681,190.294 C48.414,190.294 49.005,190.885 49.005,191.618 C49.005,192.351 48.414,192.943 47.681,192.943 z" fill-opacity="0" stroke="#F2B44A" stroke-width="1.5"/>
      </g>
      <g>
        <path d="M43.266,92.273 C42.93,92.273 42.586,92.141 42.33,91.885 C41.809,91.364 41.809,90.525 42.33,90.013 L50.277,82.065 C50.798,81.545 51.637,81.545 52.149,82.065 C52.67,82.587 52.67,83.425 52.149,83.938 L44.202,91.885 C43.946,92.15 43.61,92.273 43.266,92.273 z" fill="#EDA63A"/>
        <path d="M43.266,92.273 C42.93,92.273 42.586,92.141 42.33,91.885 C41.809,91.364 41.809,90.525 42.33,90.013 L50.277,82.065 C50.798,81.545 51.637,81.545 52.149,82.065 C52.67,82.587 52.67,83.425 52.149,83.938 L44.202,91.885 C43.946,92.15 43.61,92.273 43.266,92.273 z" fill-opacity="0" stroke="#F2B44A" stroke-width="1.5"/>
      </g>
      <g>
        <path d="M51.212,92.273 C50.876,92.273 50.532,92.141 50.276,91.885 L42.329,83.938 C41.808,83.417 41.808,82.578 42.329,82.065 C42.85,81.545 43.688,81.545 44.201,82.065 L52.148,90.013 C52.669,90.534 52.669,91.373 52.148,91.885 C51.892,92.15 51.556,92.273 51.212,92.273 z" fill="#EDA63A"/>
        <path d="M51.212,92.273 C50.876,92.273 50.532,92.141 50.276,91.885 L42.329,83.938 C41.808,83.417 41.808,82.578 42.329,82.065 C42.85,81.545 43.688,81.545 44.201,82.065 L52.148,90.013 C52.669,90.534 52.669,91.373 52.148,91.885 C51.892,92.15 51.556,92.273 51.212,92.273 z" fill-opacity="0" stroke="#F2B44A" stroke-width="1.5"/>
      </g>
      <g>
        <path d="M125.83,90.067 C111.71,90.067 100.222,78.579 100.222,64.459 C100.222,50.348 111.472,39.292 125.83,39.292 C132.594,39.292 138.917,41.897 143.659,46.63 C148.392,51.363 150.997,57.694 150.997,64.459 C150.997,78.579 139.711,90.067 125.83,90.067 z M125.83,41.941 C112.955,41.941 102.871,51.831 102.871,64.459 C102.871,77.122 113.168,87.417 125.83,87.417 C138.246,87.417 148.348,77.121 148.348,64.459 C148.348,52.043 138.255,41.941 125.83,41.941 z" fill="#EDA63A"/>
        <path d="M125.83,90.067 C111.71,90.067 100.222,78.579 100.222,64.459 C100.222,50.348 111.472,39.292 125.83,39.292 C132.594,39.292 138.917,41.897 143.659,46.63 C148.392,51.363 150.997,57.694 150.997,64.459 C150.997,78.579 139.711,90.067 125.83,90.067 z M125.83,41.941 C112.955,41.941 102.871,51.831 102.871,64.459 C102.871,77.122 113.168,87.417 125.83,87.417 C138.246,87.417 148.348,77.121 148.348,64.459 C148.348,52.043 138.255,41.941 125.83,41.941 z" fill-opacity="0" stroke="#F2B44A" stroke-width="1.5"/>
      </g>
      <g>
        <path d="M128.039,68.433 C127.668,68.433 127.315,68.274 127.058,68 L122.202,62.702 C121.937,62.411 121.813,62.022 121.866,61.634 C121.919,61.245 122.14,60.901 122.467,60.689 L137.037,51.417 C137.567,51.081 138.256,51.16 138.697,51.611 C139.139,52.061 139.2,52.75 138.856,53.271 L129.142,67.841 C128.913,68.177 128.551,68.398 128.145,68.424 C128.109,68.433 128.074,68.433 128.039,68.433 z M125.23,62.084 L127.88,64.971 L133.178,57.024 z" fill="#EDA63A"/>
        <path d="M128.039,68.433 C127.668,68.433 127.315,68.274 127.058,68 L122.202,62.702 C121.937,62.411 121.813,62.022 121.866,61.634 C121.919,61.245 122.14,60.901 122.467,60.689 L137.037,51.417 C137.567,51.081 138.256,51.16 138.697,51.611 C139.139,52.061 139.2,52.75 138.856,53.271 L129.142,67.841 C128.913,68.177 128.551,68.398 128.145,68.424 C128.109,68.433 128.074,68.433 128.039,68.433 z M125.23,62.084 L127.88,64.971 L133.178,57.024 z" fill-opacity="0" stroke="#F2B44A" stroke-width="1.5"/>
      </g>
      <g>
        <path d="M113.476,77.704 C113.131,77.704 112.787,77.571 112.531,77.307 C112.089,76.856 112.028,76.167 112.372,75.646 L122.086,61.076 C122.315,60.741 122.677,60.52 123.083,60.493 C123.49,60.467 123.887,60.617 124.161,60.917 L129.017,66.216 C129.282,66.507 129.406,66.896 129.353,67.284 C129.3,67.673 129.079,68.017 128.753,68.229 L114.182,77.501 C113.961,77.642 113.714,77.704 113.476,77.704 z M123.348,63.955 L118.05,71.902 L125.997,66.851 z" fill="#EDA63A"/>
        <path d="M113.476,77.704 C113.131,77.704 112.787,77.571 112.531,77.307 C112.089,76.856 112.028,76.167 112.372,75.646 L122.086,61.076 C122.315,60.741 122.677,60.52 123.083,60.493 C123.49,60.467 123.887,60.617 124.161,60.917 L129.017,66.216 C129.282,66.507 129.406,66.896 129.353,67.284 C129.3,67.673 129.079,68.017 128.753,68.229 L114.182,77.501 C113.961,77.642 113.714,77.704 113.476,77.704 z M123.348,63.955 L118.05,71.902 L125.997,66.851 z" fill-opacity="0" stroke="#F2B44A" stroke-width="1.5"/>
      </g>
    </g>
  </g>
</svg>
